<svg style="position: absolute; width: 0; height: 0; overflow: hidden;" version="1.1" xmlns="http://www.w3.org/2000/svg" xmlns:xlink="http://www.w3.org/1999/xlink">
    <defs>
        <symbol id="icon-menu6" viewBox="0 0 32 32">
            <path d="M2 6h28v4h-28v-4zM2 14h28v4h-28v-4zM2 22h28v4h-28v-4z"></path>
        </symbol>
        <symbol id="icon-search1" viewBox="0 0 32 32">
            <path d="M19.923 17.433c1.306-1.809 2.077-4.031 2.077-6.433 0-6.075-4.925-11-11-11s-11 4.925-11 11 4.925 11 11 11c2.402 0 4.624-0.77 6.433-2.077l10.567 12.077 4-4-12.077-10.567zM11 19c-4.418 0-8-3.582-8-8s3.582-8 8-8c4.418 0 8 3.582 8 8s-3.582 8-8 8z"></path>
        </symbol>
        <symbol id="icon-location5" viewBox="0 0 32 32">
            <path d="M16 0c-6.627 0-12 5.373-12 12 0 12 12 20 12 20s12-8 12-20c0-6.627-5.373-12-12-12zM20.187 24.773c-1.545 1.818-3.11 3.216-4.187 4.093-1.077-0.877-2.642-2.275-4.187-4.093-1.57-1.848-2.814-3.766-3.699-5.7-1.071-2.343-1.614-4.723-1.614-7.073 0-2.538 0.988-4.923 2.783-6.718s4.18-2.783 6.718-2.783c2.538 0 4.923 0.988 6.718 2.783s2.782 4.18 2.782 6.718c0 2.35-0.543 4.73-1.614 7.073-0.884 1.935-2.129 3.852-3.699 5.7zM16 6c-2.209 0-4 1.791-4 4s1.791 4 4 4c2.209 0 4-1.791 4-4s-1.791-4-4-4zM16 12c-1.105 0-2-0.895-2-2s0.895-2 2-2c1.105 0 2 0.895 2 2s-0.895 2-2 2z"></path>
        </symbol>
        <symbol id="icon-train1" viewBox="0 0 32 32">
            <path d="M28 22v-20c0-1.1-0.9-2-2-2h-22c-1.1 0-2 0.9-2 2v20c0 1.1 0.9 2 2 2h3l-4.8 6.401c-0.125 0.167-0.2 0.374-0.2 0.599 0 0.552 0.447 1 0.999 1l0 0c0 0 0.001-0 0.001-0h23.999c0 0 0.001 0 0.001 0 0.209 0 0.419-0.065 0.599-0.2 0.442-0.331 0.531-0.958 0.2-1.4l-4.8-6.4h3c1.1 0 2-0.9 2-2zM26 7v8c0 0.552-0.448 1-1 1h-9v-10h9c0.552 0 1 0.448 1 1zM10 2h10v2h-10v-2zM4 7c0-0.552 0.448-1 1-1h9v10h-9c-0.552 0-1-0.448-1-1v-8zM4 20c0-1.105 0.895-2 2-2s2 0.895 2 2-0.895 2-2 2-2-0.895-2-2zM25 30h-20l1.5-2h17l1.5 2zM22 26h-14l1.5-2h11l1.5 2zM24 22c-1.105 0-2-0.895-2-2s0.895-2 2-2 2 0.895 2 2-0.895 2-2 2z"></path>
        </symbol>
        <symbol id="icon-stairs" viewBox="0 0 32 32">
            <path d="M10 4l-2 2v4l-4 4v6l-4 4v6h22l2-2v-4h-22l4-4h20l2-2v-4h-22l4-4h20l2-2v-4z"></path>
        </symbol>
        <symbol id="icon-arrow-left7" viewBox="0 0 32 32">
            <path d="M12.586 27.414l-10-10c-0.781-0.781-0.781-2.047 0-2.828l10-10c0.781-0.781 2.047-0.781 2.828 0s0.781 2.047 0 2.828l-6.586 6.586h19.172c1.105 0 2 0.895 2 2s-0.895 2-2 2h-19.172l6.586 6.586c0.39 0.39 0.586 0.902 0.586 1.414s-0.195 1.024-0.586 1.414c-0.781 0.781-2.047 0.781-2.828 0z"></path>
        </symbol>
        <symbol id="icon-arrow-right7" viewBox="0 0 32 32">
            <path d="M19.414 27.414l10-10c0.781-0.781 0.781-2.047 0-2.828l-10-10c-0.781-0.781-2.047-0.781-2.828 0s-0.781 2.047 0 2.828l6.586 6.586h-19.172c-1.105 0-2 0.895-2 2s0.895 2 2 2h19.172l-6.586 6.586c-0.39 0.39-0.586 0.902-0.586 1.414s0.195 1.024 0.586 1.414c0.781 0.781 2.047 0.781 2.828 0z"></path>
        </symbol>
    </defs>
</svg>